# xmcd
# Copyright (C) 1995-1998 Ti Kan
#
# Track frame offsets:
#       150
#       22417
#       36753
#       50208
#       63080
#       82274
#       109273
#       126217
#       140778
#       157152
#       175780
#       189599
#       210198
#       228752
#       245668
#       258277
#       273024
#       297315
#       315995
#       340770
#
# Disc length: 4730 seconds
#
# Revision: 0
# Processed by: cddbd v1.5.2PL0 Copyright (c) Steve Scherf et al.
# Submitted via: CD-Import v1.0
#
DISCID=29127814
DTITLE=Marko Babic - 110708 Hrvatski Zvuci
DYEAR=1900
DGENRE=
TTITLE0=110708 Hrvatski Zvuci 1
TTITLE1=110708 Hrvatski Zvuci 2
TTITLE2=110708 Hrvatski Zvuci 3
TTITLE3=110708 Hrvatski Zvuci 4
TTITLE4=110708 Hrvatski Zvuci 5
TTITLE5=110708 Hrvatski Zvuci 6
TTITLE6=110708 Hrvatski Zvuci 7
TTITLE7=110708 Hrvatski Zvuci 8
TTITLE8=110708 Hrvatski Zvuci 9
TTITLE9=110708 Hrvatski Zvuci 10
TTITLE10=110708 Hrvatski Zvuci 11
TTITLE11=110708 Hrvatski Zvuci 12
TTITLE12=110708 Hrvatski Zvuci 13
TTITLE13=110708 Hrvatski Zvuci 14
TTITLE14=110708 Hrvatski Zvuci 15
TTITLE15=110708 Hrvatski Zvuci 16
TTITLE16=110708 Hrvatski Zvuci 17
TTITLE17=110708 Hrvatski Zvuci 18
TTITLE18=110708 Hrvatski Zvuci 19
TTITLE19=110708 Hrvatski Zvuci 20
EXTD=
EXTT0=
EXTT1=
EXTT2=
EXTT3=
EXTT4=
EXTT5=
EXTT6=
EXTT7=
EXTT8=
EXTT9=
EXTT10=
EXTT11=
EXTT12=
EXTT13=
EXTT14=
EXTT15=
EXTT16=
EXTT17=
EXTT18=
EXTT19=
PLAYORDER=
